<mxfile host="app.diagrams.net" agent="Mozilla/5.0 (Windows NT 10.0; Win64; x64) AppleWebKit/537.36 (KHTML, like Gecko) Chrome/131.0.0.0 Safari/537.36" version="26.0.5">
  <diagram name="1 oldal" id="KzL_mlyw6HM5IqUm_3Ji">
    <mxGraphModel dx="2021" dy="738" grid="1" gridSize="10" guides="1" tooltips="1" connect="1" arrows="1" fold="1" page="1" pageScale="1" pageWidth="827" pageHeight="1169" math="0" shadow="0">
      <root>
        <mxCell id="0" />
        <mxCell id="1" parent="0" />
        <mxCell id="QnFTYgcfVURdufgYZe0T-28" value="&lt;span style=&quot;font-size:12.0pt;line-height:107%;&lt;br/&gt;font-family:&amp;quot;Times New Roman&amp;quot;,serif;mso-fareast-font-family:Calibri;mso-fareast-theme-font:&lt;br/&gt;minor-latin;mso-ansi-language:HU;mso-fareast-language:EN-US;mso-bidi-language:&lt;br/&gt;AR-SA&quot;&gt;Updated_at&lt;/span&gt;" style="ellipse;whiteSpace=wrap;html=1;align=center;" parent="1" vertex="1">
          <mxGeometry x="95" y="445" width="100" height="40" as="geometry" />
        </mxCell>
        <mxCell id="QnFTYgcfVURdufgYZe0T-29" value="&lt;span style=&quot;font-size:12.0pt;line-height:107%;&lt;br/&gt;font-family:&amp;quot;Times New Roman&amp;quot;,serif;mso-fareast-font-family:Calibri;mso-fareast-theme-font:&lt;br/&gt;minor-latin;mso-ansi-language:HU;mso-fareast-language:EN-US;mso-bidi-language:&lt;br/&gt;AR-SA&quot;&gt;Price&lt;/span&gt;" style="ellipse;whiteSpace=wrap;html=1;align=center;" parent="1" vertex="1">
          <mxGeometry x="50" y="60" width="100" height="40" as="geometry" />
        </mxCell>
        <mxCell id="6xBrh_6f9ubQhlfFWh0M-2" value="&lt;span style=&quot;font-size:12.0pt;line-height:107%;&lt;br/&gt;font-family:&amp;quot;Times New Roman&amp;quot;,serif;mso-fareast-font-family:Calibri;mso-fareast-theme-font:&lt;br/&gt;minor-latin;mso-ansi-language:HU;mso-fareast-language:EN-US;mso-bidi-language:&lt;br/&gt;AR-SA&quot;&gt;Id&lt;/span&gt;" style="ellipse;whiteSpace=wrap;html=1;align=center;" vertex="1" parent="1">
          <mxGeometry x="350" y="90" width="100" height="40" as="geometry" />
        </mxCell>
        <mxCell id="6xBrh_6f9ubQhlfFWh0M-3" value="&lt;span style=&quot;font-size:12.0pt;line-height:107%;&lt;br/&gt;font-family:&amp;quot;Times New Roman&amp;quot;,serif;mso-fareast-font-family:Calibri;mso-fareast-theme-font:&lt;br/&gt;minor-latin;mso-ansi-language:HU;mso-fareast-language:EN-US;mso-bidi-language:&lt;br/&gt;AR-SA&quot;&gt;Description&lt;/span&gt;" style="ellipse;whiteSpace=wrap;html=1;align=center;" vertex="1" parent="1">
          <mxGeometry x="200" y="30" width="100" height="40" as="geometry" />
        </mxCell>
        <mxCell id="6xBrh_6f9ubQhlfFWh0M-4" value="&lt;span style=&quot;font-size:12.0pt;line-height:107%;&lt;br/&gt;font-family:&amp;quot;Times New Roman&amp;quot;,serif;mso-fareast-font-family:Calibri;mso-fareast-theme-font:&lt;br/&gt;minor-latin;mso-ansi-language:HU;mso-fareast-language:EN-US;mso-bidi-language:&lt;br/&gt;AR-SA&quot;&gt;Material&lt;/span&gt;" style="ellipse;whiteSpace=wrap;html=1;align=center;" vertex="1" parent="1">
          <mxGeometry x="130" y="120" width="100" height="40" as="geometry" />
        </mxCell>
        <mxCell id="6xBrh_6f9ubQhlfFWh0M-5" value="&lt;span style=&quot;font-size:12.0pt;line-height:107%;&lt;br/&gt;font-family:&amp;quot;Times New Roman&amp;quot;,serif;mso-fareast-font-family:Calibri;mso-fareast-theme-font:&lt;br/&gt;minor-latin;mso-ansi-language:HU;mso-fareast-language:EN-US;mso-bidi-language:&lt;br/&gt;AR-SA&quot;&gt;Name&lt;/span&gt;" style="ellipse;whiteSpace=wrap;html=1;align=center;" vertex="1" parent="1">
          <mxGeometry x="410" y="150" width="100" height="40" as="geometry" />
        </mxCell>
        <mxCell id="6xBrh_6f9ubQhlfFWh0M-6" value="&lt;span style=&quot;font-size:12.0pt;line-height:107%;&lt;br/&gt;font-family:&amp;quot;Times New Roman&amp;quot;,serif;mso-fareast-font-family:Calibri;mso-fareast-theme-font:&lt;br/&gt;minor-latin;mso-ansi-language:HU;mso-fareast-language:EN-US;mso-bidi-language:&lt;br/&gt;AR-SA&quot;&gt;Created_at&lt;/span&gt;" style="ellipse;whiteSpace=wrap;html=1;align=center;" vertex="1" parent="1">
          <mxGeometry x="-10" y="350" width="100" height="40" as="geometry" />
        </mxCell>
        <mxCell id="6xBrh_6f9ubQhlfFWh0M-7" value="&lt;span style=&quot;font-size:12.0pt;line-height:107%;&lt;br/&gt;font-family:&amp;quot;Times New Roman&amp;quot;,serif;mso-fareast-font-family:Calibri;mso-fareast-theme-font:&lt;br/&gt;minor-latin;mso-ansi-language:HU;mso-fareast-language:EN-US;mso-bidi-language:&lt;br/&gt;AR-SA&quot;&gt;Category&lt;/span&gt;" style="ellipse;whiteSpace=wrap;html=1;align=center;" vertex="1" parent="1">
          <mxGeometry x="-30" y="230" width="100" height="40" as="geometry" />
        </mxCell>
        <mxCell id="6xBrh_6f9ubQhlfFWh0M-8" value="&lt;span style=&quot;font-size:12.0pt;line-height:107%;&lt;br/&gt;font-family:&amp;quot;Times New Roman&amp;quot;,serif;mso-fareast-font-family:Calibri;mso-fareast-theme-font:&lt;br/&gt;minor-latin;mso-ansi-language:HU;mso-fareast-language:EN-US;mso-bidi-language:&lt;br/&gt;AR-SA&quot;&gt;Stock&lt;/span&gt;" style="ellipse;whiteSpace=wrap;html=1;align=center;" vertex="1" parent="1">
          <mxGeometry x="260" y="120" width="100" height="40" as="geometry" />
        </mxCell>
        <mxCell id="6xBrh_6f9ubQhlfFWh0M-9" value="&lt;span style=&quot;font-size: 16px;&quot;&gt;Image&lt;/span&gt;" style="ellipse;whiteSpace=wrap;html=1;align=center;" vertex="1" parent="1">
          <mxGeometry x="364" y="310" width="100" height="40" as="geometry" />
        </mxCell>
        <mxCell id="6xBrh_6f9ubQhlfFWh0M-40" style="edgeStyle=orthogonalEdgeStyle;rounded=0;orthogonalLoop=1;jettySize=auto;html=1;entryX=0.5;entryY=1;entryDx=0;entryDy=0;endArrow=none;endFill=0;" edge="1" parent="1" source="6xBrh_6f9ubQhlfFWh0M-11" target="6xBrh_6f9ubQhlfFWh0M-3">
          <mxGeometry relative="1" as="geometry" />
        </mxCell>
        <mxCell id="6xBrh_6f9ubQhlfFWh0M-41" style="edgeStyle=orthogonalEdgeStyle;rounded=0;orthogonalLoop=1;jettySize=auto;html=1;entryX=0.5;entryY=1;entryDx=0;entryDy=0;endArrow=none;endFill=0;" edge="1" parent="1" source="6xBrh_6f9ubQhlfFWh0M-11" target="6xBrh_6f9ubQhlfFWh0M-5">
          <mxGeometry relative="1" as="geometry" />
        </mxCell>
        <mxCell id="6xBrh_6f9ubQhlfFWh0M-42" style="edgeStyle=orthogonalEdgeStyle;rounded=0;orthogonalLoop=1;jettySize=auto;html=1;entryX=0.5;entryY=1;entryDx=0;entryDy=0;endArrow=none;endFill=0;" edge="1" parent="1" source="6xBrh_6f9ubQhlfFWh0M-11" target="6xBrh_6f9ubQhlfFWh0M-2">
          <mxGeometry relative="1" as="geometry" />
        </mxCell>
        <mxCell id="6xBrh_6f9ubQhlfFWh0M-43" style="edgeStyle=orthogonalEdgeStyle;rounded=0;orthogonalLoop=1;jettySize=auto;html=1;entryX=0.5;entryY=1;entryDx=0;entryDy=0;endArrow=none;endFill=0;" edge="1" parent="1" source="6xBrh_6f9ubQhlfFWh0M-11" target="6xBrh_6f9ubQhlfFWh0M-8">
          <mxGeometry relative="1" as="geometry" />
        </mxCell>
        <mxCell id="6xBrh_6f9ubQhlfFWh0M-44" style="edgeStyle=orthogonalEdgeStyle;rounded=0;orthogonalLoop=1;jettySize=auto;html=1;entryX=0.5;entryY=1;entryDx=0;entryDy=0;endArrow=none;endFill=0;" edge="1" parent="1" source="6xBrh_6f9ubQhlfFWh0M-11" target="6xBrh_6f9ubQhlfFWh0M-4">
          <mxGeometry relative="1" as="geometry" />
        </mxCell>
        <mxCell id="6xBrh_6f9ubQhlfFWh0M-45" style="edgeStyle=orthogonalEdgeStyle;rounded=0;orthogonalLoop=1;jettySize=auto;html=1;endArrow=none;endFill=0;" edge="1" parent="1" source="6xBrh_6f9ubQhlfFWh0M-11" target="6xBrh_6f9ubQhlfFWh0M-7">
          <mxGeometry relative="1" as="geometry" />
        </mxCell>
        <mxCell id="6xBrh_6f9ubQhlfFWh0M-46" style="edgeStyle=orthogonalEdgeStyle;rounded=0;orthogonalLoop=1;jettySize=auto;html=1;entryX=0.5;entryY=0;entryDx=0;entryDy=0;endArrow=none;endFill=0;" edge="1" parent="1" source="6xBrh_6f9ubQhlfFWh0M-11" target="QnFTYgcfVURdufgYZe0T-28">
          <mxGeometry relative="1" as="geometry" />
        </mxCell>
        <mxCell id="6xBrh_6f9ubQhlfFWh0M-47" style="edgeStyle=orthogonalEdgeStyle;rounded=0;orthogonalLoop=1;jettySize=auto;html=1;entryX=1;entryY=0.5;entryDx=0;entryDy=0;endArrow=none;endFill=0;" edge="1" parent="1" source="6xBrh_6f9ubQhlfFWh0M-11" target="6xBrh_6f9ubQhlfFWh0M-6">
          <mxGeometry relative="1" as="geometry" />
        </mxCell>
        <mxCell id="6xBrh_6f9ubQhlfFWh0M-48" style="edgeStyle=orthogonalEdgeStyle;rounded=0;orthogonalLoop=1;jettySize=auto;html=1;endArrow=none;endFill=0;" edge="1" parent="1" source="6xBrh_6f9ubQhlfFWh0M-11" target="QnFTYgcfVURdufgYZe0T-29">
          <mxGeometry relative="1" as="geometry" />
        </mxCell>
        <mxCell id="6xBrh_6f9ubQhlfFWh0M-51" style="edgeStyle=orthogonalEdgeStyle;rounded=0;orthogonalLoop=1;jettySize=auto;html=1;entryX=0.5;entryY=0;entryDx=0;entryDy=0;endArrow=none;endFill=0;" edge="1" parent="1" source="6xBrh_6f9ubQhlfFWh0M-11" target="6xBrh_6f9ubQhlfFWh0M-9">
          <mxGeometry relative="1" as="geometry" />
        </mxCell>
        <mxCell id="6xBrh_6f9ubQhlfFWh0M-11" value="Product" style="whiteSpace=wrap;html=1;align=center;" vertex="1" parent="1">
          <mxGeometry x="200" y="230" width="100" height="40" as="geometry" />
        </mxCell>
        <mxCell id="6xBrh_6f9ubQhlfFWh0M-108" style="edgeStyle=orthogonalEdgeStyle;rounded=0;orthogonalLoop=1;jettySize=auto;html=1;entryX=0.5;entryY=1;entryDx=0;entryDy=0;endArrow=none;endFill=0;" edge="1" parent="1" source="6xBrh_6f9ubQhlfFWh0M-12" target="6xBrh_6f9ubQhlfFWh0M-15">
          <mxGeometry relative="1" as="geometry" />
        </mxCell>
        <mxCell id="6xBrh_6f9ubQhlfFWh0M-109" style="edgeStyle=orthogonalEdgeStyle;rounded=0;orthogonalLoop=1;jettySize=auto;html=1;entryX=0.5;entryY=1;entryDx=0;entryDy=0;endArrow=none;endFill=0;" edge="1" parent="1" source="6xBrh_6f9ubQhlfFWh0M-12" target="6xBrh_6f9ubQhlfFWh0M-21">
          <mxGeometry relative="1" as="geometry" />
        </mxCell>
        <mxCell id="6xBrh_6f9ubQhlfFWh0M-110" style="edgeStyle=orthogonalEdgeStyle;rounded=0;orthogonalLoop=1;jettySize=auto;html=1;entryX=0.5;entryY=0;entryDx=0;entryDy=0;endArrow=none;endFill=0;" edge="1" parent="1" source="6xBrh_6f9ubQhlfFWh0M-12" target="6xBrh_6f9ubQhlfFWh0M-22">
          <mxGeometry relative="1" as="geometry" />
        </mxCell>
        <mxCell id="6xBrh_6f9ubQhlfFWh0M-111" style="edgeStyle=orthogonalEdgeStyle;rounded=0;orthogonalLoop=1;jettySize=auto;html=1;entryX=0;entryY=0.5;entryDx=0;entryDy=0;endArrow=none;endFill=0;" edge="1" parent="1" source="6xBrh_6f9ubQhlfFWh0M-12" target="6xBrh_6f9ubQhlfFWh0M-20">
          <mxGeometry relative="1" as="geometry" />
        </mxCell>
        <mxCell id="6xBrh_6f9ubQhlfFWh0M-12" value="Users" style="whiteSpace=wrap;html=1;align=center;" vertex="1" parent="1">
          <mxGeometry x="560" y="230" width="100" height="40" as="geometry" />
        </mxCell>
        <mxCell id="6xBrh_6f9ubQhlfFWh0M-114" style="edgeStyle=orthogonalEdgeStyle;rounded=0;orthogonalLoop=1;jettySize=auto;html=1;entryX=0.5;entryY=0;entryDx=0;entryDy=0;endArrow=none;endFill=0;" edge="1" parent="1" source="6xBrh_6f9ubQhlfFWh0M-13" target="6xBrh_6f9ubQhlfFWh0M-19">
          <mxGeometry relative="1" as="geometry" />
        </mxCell>
        <mxCell id="6xBrh_6f9ubQhlfFWh0M-116" style="edgeStyle=orthogonalEdgeStyle;rounded=0;orthogonalLoop=1;jettySize=auto;html=1;entryX=0;entryY=0.5;entryDx=0;entryDy=0;endArrow=none;endFill=0;" edge="1" parent="1" source="6xBrh_6f9ubQhlfFWh0M-13" target="6xBrh_6f9ubQhlfFWh0M-18">
          <mxGeometry relative="1" as="geometry" />
        </mxCell>
        <mxCell id="6xBrh_6f9ubQhlfFWh0M-117" style="edgeStyle=orthogonalEdgeStyle;rounded=0;orthogonalLoop=1;jettySize=auto;html=1;entryX=0.5;entryY=0;entryDx=0;entryDy=0;endArrow=none;endFill=0;" edge="1" parent="1" source="6xBrh_6f9ubQhlfFWh0M-13" target="6xBrh_6f9ubQhlfFWh0M-17">
          <mxGeometry relative="1" as="geometry" />
        </mxCell>
        <mxCell id="6xBrh_6f9ubQhlfFWh0M-118" style="edgeStyle=orthogonalEdgeStyle;rounded=0;orthogonalLoop=1;jettySize=auto;html=1;endArrow=none;endFill=0;" edge="1" parent="1" source="6xBrh_6f9ubQhlfFWh0M-13" target="6xBrh_6f9ubQhlfFWh0M-16">
          <mxGeometry relative="1" as="geometry" />
        </mxCell>
        <mxCell id="6xBrh_6f9ubQhlfFWh0M-13" value="Orders" style="whiteSpace=wrap;html=1;align=center;" vertex="1" parent="1">
          <mxGeometry x="560" y="565" width="100" height="40" as="geometry" />
        </mxCell>
        <mxCell id="6xBrh_6f9ubQhlfFWh0M-52" style="edgeStyle=orthogonalEdgeStyle;rounded=0;orthogonalLoop=1;jettySize=auto;html=1;entryX=0.5;entryY=0;entryDx=0;entryDy=0;endArrow=none;endFill=0;" edge="1" parent="1" source="6xBrh_6f9ubQhlfFWh0M-14" target="6xBrh_6f9ubQhlfFWh0M-26">
          <mxGeometry relative="1" as="geometry" />
        </mxCell>
        <mxCell id="6xBrh_6f9ubQhlfFWh0M-53" style="edgeStyle=orthogonalEdgeStyle;rounded=0;orthogonalLoop=1;jettySize=auto;html=1;entryX=1;entryY=0.5;entryDx=0;entryDy=0;endArrow=none;endFill=0;" edge="1" parent="1" source="6xBrh_6f9ubQhlfFWh0M-14" target="6xBrh_6f9ubQhlfFWh0M-24">
          <mxGeometry relative="1" as="geometry" />
        </mxCell>
        <mxCell id="6xBrh_6f9ubQhlfFWh0M-54" style="edgeStyle=orthogonalEdgeStyle;rounded=0;orthogonalLoop=1;jettySize=auto;html=1;entryX=0.5;entryY=0;entryDx=0;entryDy=0;endArrow=none;endFill=0;" edge="1" parent="1" source="6xBrh_6f9ubQhlfFWh0M-14" target="6xBrh_6f9ubQhlfFWh0M-27">
          <mxGeometry relative="1" as="geometry" />
        </mxCell>
        <mxCell id="6xBrh_6f9ubQhlfFWh0M-55" style="edgeStyle=orthogonalEdgeStyle;rounded=0;orthogonalLoop=1;jettySize=auto;html=1;entryX=1;entryY=0.5;entryDx=0;entryDy=0;endArrow=none;endFill=0;" edge="1" parent="1" source="6xBrh_6f9ubQhlfFWh0M-14" target="6xBrh_6f9ubQhlfFWh0M-25">
          <mxGeometry relative="1" as="geometry">
            <Array as="points">
              <mxPoint x="145" y="585" />
              <mxPoint x="145" y="680" />
            </Array>
          </mxGeometry>
        </mxCell>
        <mxCell id="6xBrh_6f9ubQhlfFWh0M-56" style="edgeStyle=orthogonalEdgeStyle;rounded=0;orthogonalLoop=1;jettySize=auto;html=1;endArrow=none;endFill=0;" edge="1" parent="1" source="6xBrh_6f9ubQhlfFWh0M-14" target="6xBrh_6f9ubQhlfFWh0M-23">
          <mxGeometry relative="1" as="geometry" />
        </mxCell>
        <mxCell id="6xBrh_6f9ubQhlfFWh0M-14" value="OrderItems" style="whiteSpace=wrap;html=1;align=center;" vertex="1" parent="1">
          <mxGeometry x="200" y="565" width="100" height="40" as="geometry" />
        </mxCell>
        <mxCell id="6xBrh_6f9ubQhlfFWh0M-15" value="&lt;span style=&quot;font-size:12.0pt;line-height:107%;&lt;br/&gt;font-family:&amp;quot;Times New Roman&amp;quot;,serif;mso-fareast-font-family:Calibri;mso-fareast-theme-font:&lt;br/&gt;minor-latin;mso-ansi-language:HU;mso-fareast-language:EN-US;mso-bidi-language:&lt;br/&gt;AR-SA&quot;&gt;Id&lt;/span&gt;" style="ellipse;whiteSpace=wrap;html=1;align=center;" vertex="1" parent="1">
          <mxGeometry x="560" y="90" width="100" height="40" as="geometry" />
        </mxCell>
        <mxCell id="6xBrh_6f9ubQhlfFWh0M-16" value="&lt;span style=&quot;font-size:12.0pt;line-height:107%;&lt;br/&gt;font-family:&amp;quot;Times New Roman&amp;quot;,serif;mso-fareast-font-family:Calibri;mso-fareast-theme-font:&lt;br/&gt;minor-latin;mso-ansi-language:HU;mso-fareast-language:EN-US;mso-bidi-language:&lt;br/&gt;AR-SA&quot;&gt;UserId&lt;/span&gt;" style="ellipse;whiteSpace=wrap;html=1;align=center;" vertex="1" parent="1">
          <mxGeometry x="710" y="450" width="100" height="40" as="geometry" />
        </mxCell>
        <mxCell id="6xBrh_6f9ubQhlfFWh0M-17" value="&lt;span style=&quot;font-size:12.0pt;line-height:107%;&lt;br/&gt;font-family:&amp;quot;Times New Roman&amp;quot;,serif;mso-fareast-font-family:Calibri;mso-fareast-theme-font:&lt;br/&gt;minor-latin;mso-ansi-language:HU;mso-fareast-language:EN-US;mso-bidi-language:&lt;br/&gt;AR-SA&quot;&gt;TotalPrice&lt;/span&gt;" style="ellipse;whiteSpace=wrap;html=1;align=center;" vertex="1" parent="1">
          <mxGeometry x="710" y="660" width="100" height="40" as="geometry" />
        </mxCell>
        <mxCell id="6xBrh_6f9ubQhlfFWh0M-18" value="&lt;span style=&quot;font-size:12.0pt;line-height:107%;&lt;br/&gt;font-family:&amp;quot;Times New Roman&amp;quot;,serif;mso-fareast-font-family:Calibri;mso-fareast-theme-font:&lt;br/&gt;minor-latin;mso-ansi-language:HU;mso-fareast-language:EN-US;mso-bidi-language:&lt;br/&gt;AR-SA&quot;&gt;Id&lt;/span&gt;" style="ellipse;whiteSpace=wrap;html=1;align=center;" vertex="1" parent="1">
          <mxGeometry x="827" y="565" width="100" height="40" as="geometry" />
        </mxCell>
        <mxCell id="6xBrh_6f9ubQhlfFWh0M-19" value="&lt;span style=&quot;font-size:12.0pt;line-height:107%;&lt;br/&gt;font-family:&amp;quot;Times New Roman&amp;quot;,serif;mso-fareast-font-family:Calibri;mso-fareast-theme-font:&lt;br/&gt;minor-latin;mso-ansi-language:HU;mso-fareast-language:EN-US;mso-bidi-language:&lt;br/&gt;AR-SA&quot;&gt;Status&lt;/span&gt;" style="ellipse;whiteSpace=wrap;html=1;align=center;" vertex="1" parent="1">
          <mxGeometry x="560" y="700" width="100" height="40" as="geometry" />
        </mxCell>
        <mxCell id="6xBrh_6f9ubQhlfFWh0M-20" value="&lt;span style=&quot;font-size:12.0pt;line-height:107%;&lt;br/&gt;font-family:&amp;quot;Times New Roman&amp;quot;,serif;mso-fareast-font-family:Calibri;mso-fareast-theme-font:&lt;br/&gt;minor-latin;mso-ansi-language:HU;mso-fareast-language:EN-US;mso-bidi-language:&lt;br/&gt;AR-SA&quot;&gt;Name&lt;/span&gt;" style="ellipse;whiteSpace=wrap;html=1;align=center;" vertex="1" parent="1">
          <mxGeometry x="820" y="230" width="100" height="40" as="geometry" />
        </mxCell>
        <mxCell id="6xBrh_6f9ubQhlfFWh0M-21" value="&lt;span style=&quot;font-size:12.0pt;line-height:107%;&lt;br/&gt;font-family:&amp;quot;Times New Roman&amp;quot;,serif;mso-fareast-font-family:Calibri;mso-fareast-theme-font:&lt;br/&gt;minor-latin;mso-ansi-language:HU;mso-fareast-language:EN-US;mso-bidi-language:&lt;br/&gt;AR-SA&quot;&gt;Email&lt;/span&gt;" style="ellipse;whiteSpace=wrap;html=1;align=center;" vertex="1" parent="1">
          <mxGeometry x="700" y="170" width="100" height="40" as="geometry" />
        </mxCell>
        <mxCell id="6xBrh_6f9ubQhlfFWh0M-22" value="&lt;span style=&quot;font-size:12.0pt;line-height:107%;&lt;br/&gt;font-family:&amp;quot;Times New Roman&amp;quot;,serif;mso-fareast-font-family:Calibri;mso-fareast-theme-font:&lt;br/&gt;minor-latin;mso-ansi-language:HU;mso-fareast-language:EN-US;mso-bidi-language:&lt;br/&gt;AR-SA&quot;&gt;Password&lt;/span&gt;" style="ellipse;whiteSpace=wrap;html=1;align=center;" vertex="1" parent="1">
          <mxGeometry x="700" y="290" width="100" height="40" as="geometry" />
        </mxCell>
        <mxCell id="6xBrh_6f9ubQhlfFWh0M-23" value="&lt;span style=&quot;font-size:12.0pt;line-height:107%;&lt;br/&gt;font-family:&amp;quot;Times New Roman&amp;quot;,serif;mso-fareast-font-family:Calibri;mso-fareast-theme-font:&lt;br/&gt;minor-latin;mso-ansi-language:HU;mso-fareast-language:EN-US;mso-bidi-language:&lt;br/&gt;AR-SA&quot;&gt;Id&lt;/span&gt;" style="ellipse;whiteSpace=wrap;html=1;align=center;" vertex="1" parent="1">
          <mxGeometry x="95" y="740" width="100" height="40" as="geometry" />
        </mxCell>
        <mxCell id="6xBrh_6f9ubQhlfFWh0M-24" value="&lt;span style=&quot;font-size:12.0pt;line-height:107%;&lt;br/&gt;font-family:&amp;quot;Times New Roman&amp;quot;,serif;mso-fareast-font-family:Calibri;mso-fareast-theme-font:&lt;br/&gt;minor-latin;mso-ansi-language:HU;mso-fareast-language:EN-US;mso-bidi-language:&lt;br/&gt;AR-SA&quot;&gt;OrderId&lt;/span&gt;" style="ellipse;whiteSpace=wrap;html=1;align=center;" vertex="1" parent="1">
          <mxGeometry x="10" y="565" width="100" height="40" as="geometry" />
        </mxCell>
        <mxCell id="6xBrh_6f9ubQhlfFWh0M-25" value="&lt;span style=&quot;font-size:12.0pt;line-height:107%;&lt;br/&gt;font-family:&amp;quot;Times New Roman&amp;quot;,serif;mso-fareast-font-family:Calibri;mso-fareast-theme-font:&lt;br/&gt;minor-latin;mso-ansi-language:HU;mso-fareast-language:EN-US;mso-bidi-language:&lt;br/&gt;AR-SA&quot;&gt;ProductId&lt;/span&gt;" style="ellipse;whiteSpace=wrap;html=1;align=center;" vertex="1" parent="1">
          <mxGeometry x="-10" y="660" width="100" height="40" as="geometry" />
        </mxCell>
        <mxCell id="6xBrh_6f9ubQhlfFWh0M-26" value="&lt;span style=&quot;font-size:12.0pt;line-height:107%;&lt;br/&gt;font-family:&amp;quot;Times New Roman&amp;quot;,serif;mso-fareast-font-family:Calibri;mso-fareast-theme-font:&lt;br/&gt;minor-latin;mso-ansi-language:HU;mso-fareast-language:EN-US;mso-bidi-language:&lt;br/&gt;AR-SA&quot;&gt;Quantity&lt;/span&gt;" style="ellipse;whiteSpace=wrap;html=1;align=center;" vertex="1" parent="1">
          <mxGeometry x="200" y="710" width="100" height="40" as="geometry" />
        </mxCell>
        <mxCell id="6xBrh_6f9ubQhlfFWh0M-27" value="&lt;span style=&quot;font-size:12.0pt;line-height:107%;&lt;br/&gt;font-family:&amp;quot;Times New Roman&amp;quot;,serif;mso-fareast-font-family:Calibri;mso-fareast-theme-font:&lt;br/&gt;minor-latin;mso-ansi-language:HU;mso-fareast-language:EN-US;mso-bidi-language:&lt;br/&gt;AR-SA&quot;&gt;Price&lt;/span&gt;" style="ellipse;whiteSpace=wrap;html=1;align=center;" vertex="1" parent="1">
          <mxGeometry x="300" y="670" width="100" height="40" as="geometry" />
        </mxCell>
        <mxCell id="6xBrh_6f9ubQhlfFWh0M-33" style="edgeStyle=orthogonalEdgeStyle;rounded=0;orthogonalLoop=1;jettySize=auto;html=1;entryX=0;entryY=0.5;entryDx=0;entryDy=0;" edge="1" parent="1" source="6xBrh_6f9ubQhlfFWh0M-28" target="6xBrh_6f9ubQhlfFWh0M-13">
          <mxGeometry relative="1" as="geometry" />
        </mxCell>
        <mxCell id="6xBrh_6f9ubQhlfFWh0M-34" style="edgeStyle=orthogonalEdgeStyle;rounded=0;orthogonalLoop=1;jettySize=auto;html=1;entryX=1;entryY=0.5;entryDx=0;entryDy=0;" edge="1" parent="1" source="6xBrh_6f9ubQhlfFWh0M-28" target="6xBrh_6f9ubQhlfFWh0M-14">
          <mxGeometry relative="1" as="geometry" />
        </mxCell>
        <mxCell id="6xBrh_6f9ubQhlfFWh0M-28" value="Relationship" style="shape=rhombus;perimeter=rhombusPerimeter;whiteSpace=wrap;html=1;align=center;" vertex="1" parent="1">
          <mxGeometry x="380" y="557" width="110" height="55" as="geometry" />
        </mxCell>
        <mxCell id="6xBrh_6f9ubQhlfFWh0M-37" style="edgeStyle=orthogonalEdgeStyle;rounded=0;orthogonalLoop=1;jettySize=auto;html=1;entryX=0.5;entryY=1;entryDx=0;entryDy=0;" edge="1" parent="1" source="6xBrh_6f9ubQhlfFWh0M-29" target="6xBrh_6f9ubQhlfFWh0M-11">
          <mxGeometry relative="1" as="geometry" />
        </mxCell>
        <mxCell id="6xBrh_6f9ubQhlfFWh0M-119" style="edgeStyle=orthogonalEdgeStyle;rounded=0;orthogonalLoop=1;jettySize=auto;html=1;entryX=0.5;entryY=0;entryDx=0;entryDy=0;" edge="1" parent="1" source="6xBrh_6f9ubQhlfFWh0M-29" target="6xBrh_6f9ubQhlfFWh0M-14">
          <mxGeometry relative="1" as="geometry" />
        </mxCell>
        <mxCell id="6xBrh_6f9ubQhlfFWh0M-29" value="Relationship" style="shape=rhombus;perimeter=rhombusPerimeter;whiteSpace=wrap;html=1;align=center;" vertex="1" parent="1">
          <mxGeometry x="195" y="370" width="110" height="55" as="geometry" />
        </mxCell>
        <mxCell id="6xBrh_6f9ubQhlfFWh0M-31" style="edgeStyle=orthogonalEdgeStyle;rounded=0;orthogonalLoop=1;jettySize=auto;html=1;entryX=0.5;entryY=0;entryDx=0;entryDy=0;" edge="1" parent="1" source="6xBrh_6f9ubQhlfFWh0M-30" target="6xBrh_6f9ubQhlfFWh0M-13">
          <mxGeometry relative="1" as="geometry" />
        </mxCell>
        <mxCell id="6xBrh_6f9ubQhlfFWh0M-32" style="edgeStyle=orthogonalEdgeStyle;rounded=0;orthogonalLoop=1;jettySize=auto;html=1;entryX=0.5;entryY=1;entryDx=0;entryDy=0;" edge="1" parent="1" source="6xBrh_6f9ubQhlfFWh0M-30" target="6xBrh_6f9ubQhlfFWh0M-12">
          <mxGeometry relative="1" as="geometry" />
        </mxCell>
        <mxCell id="6xBrh_6f9ubQhlfFWh0M-30" value="Relationship" style="shape=rhombus;perimeter=rhombusPerimeter;whiteSpace=wrap;html=1;align=center;" vertex="1" parent="1">
          <mxGeometry x="555" y="390" width="110" height="55" as="geometry" />
        </mxCell>
      </root>
    </mxGraphModel>
  </diagram>
</mxfile>
